<svg
xmlns="http://www.w3.org/2000/svg"
fill="black"
viewBox="988.22 32.92 149.78 249.72"
>
<path
    d="M1098.07 156.503H1096.22L1098.07 155.368C1096.22 155.368 1094.8 155.368 1093.38 154.659C1085.56 156.077 1077.32 156.503 1069.79 157.922C1069.36 157.922 1068.65 158.631 1068.65 158.631C1068.65 158.631 1068.75 158.868 1068.94 159.341C1072.49 159.341 1076.18 160.05 1080.02 160.05C1083.29 160.05 1086.84 158.915 1090.11 158.631C1087.27 160.76 1077.18 160.476 1073.2 160.476C1071.78 160.476 1070.64 160.76 1069.65 161.185C1070.36 163.313 1072.91 164.023 1073.63 166.151C1081.44 173.955 1088.69 185.164 1094.37 194.386C1094.37 195.521 1094.8 197.224 1095.51 197.933V199.352C1095.51 200.062 1096.65 201.197 1097.36 201.481H1097.78C1097.78 201.481 1097.36 202.19 1097.36 202.615C1097.36 204.034 1100.63 205.169 1100.63 206.163C1100.63 206.446 1100.63 206.872 1100.2 206.872C1096.93 206.446 1096.22 204.744 1094.8 202.19C1091.53 200.062 1090.82 195.379 1086.98 193.535C1086.27 190.697 1084.43 190.981 1083.43 188.143L1080.16 181.049C1081.58 181.475 1082.72 182.468 1082.72 183.887C1084.85 188.853 1088.4 192.116 1090.96 196.798C1092.1 197.224 1092.1 198.643 1093.52 198.927C1091.39 192.825 1087.84 185.022 1082.01 181.049C1082.01 179.914 1081.58 178.495 1080.16 178.495C1079.45 178.495 1079.45 179.914 1079.74 180.34C1078.31 178.211 1077.6 176.083 1075.47 174.664L1075.9 173.955C1075.9 172.11 1074.76 170.692 1073.34 170.408C1072.63 167.854 1069.79 170.408 1068.37 167.57C1067.23 165.016 1064.1 164.307 1061.97 164.307C1055.58 173.955 1031.85 196.514 1028.72 206.163C1026.59 206.446 1025.17 208.007 1023.03 208.007C1022.61 208.007 1021.19 208.007 1021.19 207.298C1021.19 206.588 1022.61 205.879 1023.03 204.744C1026.59 199.068 1058.56 165.726 1058.56 161.469C1058.56 160.334 1056 159.624 1055.01 159.624C1053.87 159.199 1052.45 158.915 1051.46 158.915C1048.19 158.915 1045.35 159.624 1042.22 159.624C1034.69 159.624 1026.87 161.043 1018.91 161.043C1017.49 161.043 1018.2 159.624 1017.07 158.489C1019.62 158.064 1021.76 156.361 1024.31 156.361C1025.02 156.361 1026.45 156.645 1027.58 157.496C1029.71 157.496 1031.85 157.922 1033.98 157.922C1041.79 157.922 1053.02 157.496 1060.55 155.794C1060.98 155.51 1061.26 155.51 1061.26 155.084C1061.26 154.659 1059.41 154.375 1059.84 153.24C1059.84 151.821 1051.6 144.585 1051.6 142.457C1052.02 142.457 1052.02 142.031 1052.02 142.031C1052.02 138.058 1039.52 123.444 1036.25 119.897V119.613C1036.25 117.485 1034.4 116.35 1034.4 114.647C1034.4 113.938 1035.54 113.228 1036.25 113.228C1037.39 113.228 1038.1 114.647 1038.81 115.357C1038.52 115.64 1038.1 116.066 1038.1 116.492C1038.1 118.336 1045.91 128.268 1046.62 128.268C1047.05 128.268 1047.05 127.133 1047.34 127.133C1055.58 132.099 1057.71 141.463 1063.11 148.557C1068.51 148.557 1080.3 119.613 1087.13 117.059H1087.84C1081.73 125.998 1074.9 134.653 1069.93 144.301L1070.64 145.01C1073.91 143.591 1073.2 140.044 1074.62 138.909C1075.33 137.774 1078.88 135.646 1078.88 134.653C1078.88 133.943 1087.84 122.876 1089.68 118.904C1091.53 117.059 1092.53 114.931 1094.37 112.803L1091.82 113.512C1092.53 110.674 1098.64 107.127 1101.48 107.411C1098.21 113.086 1092.24 116.35 1089.68 122.451C1086.41 129.261 1082.86 133.234 1078.17 138.909V139.193C1078.17 140.328 1076.04 141.321 1076.04 142.457C1073.91 146.004 1067.09 149.976 1067.09 154.942C1068.23 155.368 1069.65 155.368 1070.64 155.368C1080.02 155.368 1089.68 153.24 1098.92 153.24C1102.19 153.24 1106.74 152.956 1109.72 154.375C1106.17 155.794 1102.19 156.219 1098.64 156.503H1098.07ZM1090.82 157.922H1088.97L1095.37 156.503C1094.66 156.787 1091.1 157.922 1090.68 157.922H1090.82Z"
        stroke="black"
    stroke-width="9"
></path>
<path
    d="M1135.3 170.975C1133.45 172.394 1130.33 174.522 1130.61 177.36V178.495C1127.77 182.752 1127.34 187.86 1124.5 192.116C1124.22 192.542 1124.07 193.109 1123.79 193.535C1128.19 169.414 1129.62 141.747 1129.62 125.998C1129.62 111.384 1124.64 97.0534 1123.22 82.2974C1122.51 70.8047 1122.08 58.319 1114.55 49.0965C1107.02 40.5834 1096.65 34.0567 1084.85 34.0567C1083 34.0567 1081.3 34.0567 1079.45 34.3405C1078.03 33.2054 1076.18 32.9216 1074.48 32.9216C1069.08 32.9216 1064.81 36.8944 1059.84 36.8944C1058.42 36.8944 1057 36.6106 1055.86 36.1849L1054.01 38.0295L1060.41 38.3132C1060.84 39.0226 1061.55 39.7321 1061.55 40.4415C1061.55 42.5698 1055.44 41.8603 1054.72 45.4074C1043.21 51.5085 1031.13 66.1225 1024.31 76.9057C1020.33 83.2905 1016.78 91.2361 1013.23 98.0466C1012.8 98.3304 1010.39 103.722 1009.68 103.722C1009.68 106.276 1008.97 108.404 1008.54 110.533C1005.7 113.37 1007.4 118.762 1004.56 121.599C1000.3 135.22 996.745 151.963 996.745 166.009C996.745 167.144 996.034 167.428 994.897 167.854C994.613 164.59 993.476 161.043 993.76 157.496V155.368C995.182 123.16 995.892 95.9183 1014.93 68.1089C1029.29 46.9681 1047.48 43.8467 1052.88 37.32C1051.74 37.32 1051.03 36.8944 1050.04 36.8944C1047.19 36.8944 1044.35 38.3132 1042.93 40.8671C1022.47 47.6776 1012.52 66.2645 1003.85 84.142C1002.43 86.2702 1000.58 87.689 1000.3 90.5267C998.876 96.9115 997.739 103.013 995.324 109.539C994.613 112.093 993.192 115.924 993.192 118.478C993.192 120.606 994.329 122.734 994.329 124.863C994.329 127.7 993.903 130.254 993.192 133.092C989.213 152.814 988.218 174.239 988.218 194.244C988.218 210.277 995.324 224.608 1000.44 239.364C1005.84 255.113 1017.35 268.024 1029.43 278.666L1038.38 280.085C1040.51 281.929 1043.07 282.638 1045.91 282.638C1049.89 282.638 1053.73 281.22 1057.71 281.503H1059.13C1064.1 278.24 1072.77 276.112 1076.75 271.855C1077.89 271.146 1078.6 268.592 1080.02 268.592C1080.3 268.592 1080.73 268.592 1081.16 268.876C1088.69 260.646 1098.07 253.836 1104.75 245.323C1108.3 241.066 1110.43 235.675 1113.7 230.992C1114.84 229.574 1114.84 227.445 1116.54 226.31C1120.8 215.527 1138 181.191 1138 171.969V170.833H1135.44L1135.3 170.975ZM1050.04 279.801C1038.95 279.801 1026.45 275.828 1019.91 266.606C1014.93 260.221 1008.11 254.12 1004.84 246.174C1001.58 242.627 990.918 199.636 990.918 193.251C990.918 192.967 990.918 191.407 992.055 191.407C996.318 191.407 1004.28 214.25 1004.99 217.513C1008.26 228.297 1014.37 239.647 1019.34 249.721C1022.18 254.687 1026.16 258.376 1029 263.342C1032.56 264.477 1034.4 268.308 1038.24 269.018C1040.09 272.281 1043.64 272.565 1045.77 275.118C1047.19 275.118 1051.17 276.254 1051.17 277.956C1051.17 278.666 1051.17 279.801 1050.04 279.801ZM1076.18 263.626C1073.63 268.308 1063.68 273.984 1058.99 273.984C1054.01 273.984 1049.61 269.301 1044.64 269.018C1043.5 265.47 1039.66 267.173 1037.1 265.47C1030.99 261.214 1022.75 252.559 1019.2 246.174C1013.09 234.681 1007.69 219.642 1004.56 207.581C1003.14 202.616 1003.14 173.529 1003.14 167.57C1003.14 146.146 1002.43 129.261 1011.38 109.681C1011.38 105.425 1015.65 102.871 1015.65 99.6073V98.1884C1018.2 95.3507 1018.2 90.6686 1021.33 88.1147C1024.6 77.7571 1034.26 71.2305 1039.24 61.5824C1043.21 59.7379 1044.21 54.488 1047.9 51.9341C1055.72 46.9682 1063.96 39.732 1074.05 39.732C1075.19 40.4415 1076.18 41.151 1077.6 41.151C1078.31 41.151 1078.74 40.8671 1079.45 40.8671L1080.87 39.732C1082.29 40.0158 1084.14 41.5766 1084.85 39.0227C1091.25 40.4415 1100.2 37.1781 1104.18 44.4142C1118.1 53.353 1113.84 72.3654 1119.53 85.135C1120.66 96.6277 1121.66 107.979 1122.08 119.897C1122.51 135.93 1124.64 152.105 1124.64 168.563C1124.64 181.9 1123.79 190.272 1121.52 198.075C1120.09 200.771 1118.53 203.467 1117.11 206.446C1113.13 208.575 1112.42 214.25 1108.16 215.811C1105.46 221.061 1102.05 228.297 1098.35 235.817C1098.35 235.817 1098.35 235.817 1098.21 235.817C1097.78 235.391 1097.64 234.965 1097.36 234.398C1096.36 235.533 1095.51 236.81 1094.37 237.803C1094.94 238.512 1095.51 239.364 1096.08 239.931C1090.39 250.431 1083.71 260.363 1076.33 263.626H1076.18ZM1116.12 211.554C1113.98 216.095 1111.28 221.202 1108.02 227.445C1105.32 228.58 1103.89 231.418 1102.05 233.546C1102.47 232.411 1102.76 231.418 1103.47 230.709C1106.59 223.615 1111.43 217.655 1116.26 211.554H1116.12ZM1096.93 248.302C1096.5 250.147 1095.08 250.431 1093.66 250.856C1095.08 247.025 1096.79 243.336 1098.64 239.789C1102.05 238.512 1105.17 235.533 1108.58 233.688C1105.03 238.796 1101.19 243.762 1096.93 248.302ZM1118.96 213.541C1119.81 210.845 1120.52 208.007 1121.23 205.028C1121.94 204.034 1122.65 203.183 1123.36 202.19C1123.36 206.588 1121.09 209.993 1118.82 213.541H1118.96Z"
    stroke="black"
    stroke-width="11"
></path>
</svg>