<svg
    width="100%"
    height="100%"
    viewBox="0 0 1138 479"
    fill="none"
    xmlns="http://www.w3.org/2000/svg"
    class="active-dark"
>
    <path
    d="M78.3014 57.747C77.1645 57.747 76.1698 57.0374 76.1698 55.6186C68.3539 47.3893 62.2433 39.8695 49.5957 39.8695C40.3586 39.8695 33.5374 45.9705 25.2952 49.2338C18.9003 56.0443 12.7897 64.983 12.7897 74.9149C12.7897 79.5971 14.2108 83.8537 16.7687 87.4008C17.9056 94.9207 23.1636 101.305 23.5899 108.825C25.011 109.96 31.1216 117.055 32.1163 118.899C35.669 125.71 36.0954 123.865 42.206 128.973C49.7378 135.358 47.1798 147.276 56.8431 155.505C60.8222 164.018 68.3539 172.673 68.3539 182.322C68.3539 184.45 67.6433 186.294 67.6433 188.423C67.6433 192.395 69.0644 196.226 69.0644 200.199C69.0644 202.327 68.6381 204.456 67.6433 205.874C53.7167 214.388 50.7325 218.077 32.969 218.077C15.2055 218.077 11.7949 203.037 0 194.524V193.814C0 192.679 1.42106 191.686 1.42106 190.267C1.42106 189.558 0.710539 188.848 0 188.848L0.710528 187.713C4.68955 190.267 6.82117 194.524 10.3739 197.787H12.9318C17.6214 208.57 21.8846 214.671 35.1007 214.671C40.785 214.671 46.185 213.252 51.1588 210.698C59.4011 207.151 56.1326 202.185 59.4011 195.659V193.105C60.5379 173.808 30.4111 130.108 16.0582 115.778C14.2108 111.095 9.23699 107.974 8.52645 102.866C5.96851 98.6096 4.54745 96.0557 4.54745 90.6641C4.54745 83.1442 2.70003 75.3405 2.70003 67.395C5.25797 63.1385 5.5422 57.747 9.09489 54.1998C20.6056 43.1329 30.269 35.8967 47.464 35.8967C56.8431 35.8967 80.0067 43.1328 80.0067 55.9024C80.0067 56.6118 78.8698 57.747 78.1593 57.747H78.3014ZM35.669 40.1532C33.8216 40.1532 27.4268 42.7072 26.0058 44.1261C16.3424 46.9637 6.96331 60.5847 6.96331 70.6585C6.96331 78.1784 10.2318 85.2726 11.2265 92.7925C14.495 97.7584 16.2003 102.866 21.3162 106.697H22.0267C20.1793 99.6029 14.9213 93.0761 14.9213 85.5562C12.7897 83.0023 10.6581 79.1715 10.6581 75.9082C10.6581 69.8071 13.5003 64.1317 16.0582 59.0239C20.3214 55.7605 20.3214 51.2202 24.3004 47.9569L28.2795 47.2474C30.8374 44.6935 35.8112 42.5652 37.2322 40.1532H35.8112H35.669ZM21.4583 104.853C17.9056 102.724 18.9003 99.4611 14.3529 95.9139C13.9265 95.4883 14.3529 94.7788 14.3529 94.0694C14.3529 92.9343 12.9318 92.9343 12.2213 92.9343V94.3532C12.2213 99.7448 18.3319 104.427 20.7477 109.393C22.5951 110.102 20.7477 111.947 24.3004 111.947C24.3004 109.393 22.1688 107.265 21.4583 104.853ZM25.2952 113.791L24.5846 114.217L25.2952 114.501V113.791ZM62.9538 186.153C62.9538 186.153 64.0906 184.308 64.0906 183.315C64.0906 181.186 62.9538 179.058 62.9538 176.504C57.98 166.856 55.1379 155.789 48.6009 146.425C44.3377 145.29 47.1798 141.743 43.9113 140.324C42.4902 134.223 38.9375 129.541 34.248 125.993C33.1111 123.439 29.5584 117.48 27.1426 116.345V118.19C29.2742 119.609 29.9847 121.737 31.1216 123.581C40.5007 138.621 51.1588 153.235 56.9852 170.119C58.8326 176.504 62.3853 184.45 62.3853 191.26C62.3853 194.098 62.1011 196.652 60.5379 199.064C60.5379 199.773 61.2485 200.483 61.959 200.199C63.8064 198.071 64.0906 195.517 64.0906 192.679C64.0906 190.551 63.6643 188.423 62.9538 186.294V186.153ZM65.0854 201.192C57.5537 204.03 57.5537 210.131 52.1536 214.104L53.5747 214.813C56.4168 211.975 65.7959 208.003 65.7959 203.746C65.7959 203.037 65.3696 201.902 65.0854 201.192Z"
    fill="white"
    class="svg-elem-1"
    ></path>
    <path
    d="M213.162 169.978C210.604 178.207 202.078 182.463 198.809 189.983C199.235 194.665 199.235 198.922 199.235 203.604C199.235 212.117 198.809 220.772 197.814 229.711C197.104 236.096 198.951 246.879 191.704 250.426C190.283 248.582 189.572 246.453 189.572 244.325C189.146 228.576 189.998 212.543 189.998 196.368H188.862C185.309 196.368 176.356 203.462 165.272 203.462C158.166 203.462 150.919 201.618 143.813 200.625C140.261 196.368 134.861 197.078 131.592 191.686C124.771 180.903 126.192 163.735 123.776 151.674C124.487 150.965 124.487 150.54 124.487 149.83C124.487 148.411 124.202 147.276 123.776 146.283C121.645 143.445 122.639 139.898 121.929 136.635C122.639 136.209 122.639 135.925 122.639 135.216C122.639 134.081 121.929 133.088 121.929 131.953L122.639 130.108C121.502 120.034 120.508 85.4145 117.95 79.3135C120.508 78.604 118.66 75.3406 120.508 74.3474C119.797 71.5097 119.087 68.2463 119.087 64.983C119.087 63.1385 119.371 61.436 119.797 59.5915C119.797 57.747 118.66 56.0443 118.66 53.916C118.66 51.7877 120.081 48.2407 122.924 48.2407C145.092 48.2407 133.724 183.173 157.029 197.077C169.535 195.942 178.914 186.294 189.572 180.619L190.709 178.065C190.709 169.552 190.425 160.897 188.862 152.668C189.572 150.823 189.572 149.404 189.572 147.702C189.572 139.898 187.44 131.952 187.44 123.723C187.44 106.13 191.704 85.4144 190.993 69.6652C192.414 64.983 191.704 60.0171 191.704 55.3349C191.704 53.2067 191.704 51.0785 192.841 48.9502H196.82C196.535 50.7947 198.667 50.369 198.667 51.7878C198.667 67.1114 196.82 82.5768 196.82 98.3259C196.82 103.718 197.246 109.109 197.246 114.785C197.246 129.115 200.514 143.445 200.514 158.059C200.514 162.032 200.799 165.863 201.651 169.836C210.604 167.282 209.893 153.661 219.273 153.661C219.983 154.37 220.409 155.505 220.409 156.215C220.409 161.181 212.878 165.579 213.588 169.836L213.162 169.978ZM145.519 194.665C135.429 166.714 134.718 123.156 131.876 93.0763C130.739 83.0025 130.029 71.9353 126.903 62.2872C126.192 59.4495 125.481 55.4768 124.06 52.6391C122.923 53.7742 123.35 55.4768 122.924 56.8957C125.766 87.6846 125.481 118.757 127.897 149.83C128.324 153.377 127.613 149.83 127.613 153.803C127.613 156.641 129.034 158.059 129.034 161.039C129.034 161.748 129.318 162.458 130.171 162.883C131.308 168.984 137.987 196.084 145.234 196.084C145.945 196.084 145.945 195.659 145.945 194.949L145.661 194.524L145.519 194.665ZM188.151 184.734C183.177 188.706 176.356 190.835 172.377 196.226H175.219C180.193 192.253 186.73 191.26 189.856 185.443L188.009 184.734H188.151Z"
    fill="white"
    class="svg-elem-2"
    ></path>
    <path
    d="M365.786 133.513C360.812 144.58 348.59 155.647 336.796 159.336C333.527 160.471 331.395 163.593 327.843 162.884C322.443 167.849 314.2 168.275 308.8 173.667C303.4 175.511 299.563 178.349 293.453 177.923L291.605 180.051C291.605 190.835 292.742 201.192 292.742 211.55C292.742 218.36 291.605 224.745 291.605 231.272C291.605 261.351 292.742 292.85 298 322.504C299.421 330.733 300.132 339.388 300.132 347.901C300.132 359.394 298.995 371.454 295.442 382.663C294.732 385.216 295.016 386.919 295.016 389.473C295.016 392.737 293.879 394.865 290.042 394.439C290.042 389.757 289.616 384.791 289.616 379.825C289.616 364.076 290.753 348.326 290.753 332.293C290.753 328.321 289.332 305.761 290.042 304.342C288.621 302.214 290.468 299.66 287.484 297.957L286.774 296.539C286.774 287.6 287.2 278.945 287.2 270.006V269.297L286.774 270.716L286.489 274.688C284.358 273.27 285.779 271.141 285.779 269.297C285.779 268.162 284.642 267.169 283.931 266.743L284.642 263.905L286.774 264.615L288.195 263.905C288.621 262.486 289.332 261.068 289.332 259.649C289.332 259.365 288.621 257.52 288.195 257.52C286.347 257.52 286.347 258.655 286.774 260.074H286.063C285.353 260.074 284.216 259.649 283.931 259.365C283.931 258.23 285.068 257.52 285.068 256.527C285.068 256.102 284.358 255.392 283.931 255.108C284.216 254.399 284.216 253.689 284.216 252.98C284.216 251.561 283.931 250.142 283.931 248.723C284.642 249.433 285.068 249.433 286.063 249.433C287.058 249.433 287.91 247.305 287.91 246.17C287.91 245.035 287.626 244.041 286.774 242.906C284.642 242.197 283.931 240.069 283.931 237.94C283.931 237.94 284.168 237.798 284.642 237.515C285.779 237.515 286.489 238.224 287.2 238.224C287.626 238.224 287.91 237.515 288.337 237.515C288.337 233.258 284.074 236.38 282.937 233.258C284.074 232.832 282.937 230.704 284.074 231.13C285.21 231.556 285.21 233.968 286.205 233.968H286.916L287.626 232.123C286.489 230.279 286.205 227.867 284.074 226.732V224.603C283.363 219.921 284.784 214.955 284.784 210.273L286.632 210.699C286.632 210.699 287.768 209.28 287.768 208.57L287.058 207.861L285.21 208.57C284.5 208.145 284.784 207.435 284.784 207.151C284.784 206.442 284.358 206.016 284.074 206.016C285.921 202.753 284.074 198.496 288.337 196.652C287.626 194.524 286.489 192.395 286.489 190.267C286.489 188.848 287.2 187.429 288.337 186.72C287.91 186.011 287.91 185.301 287.626 185.301V187.429L288.337 192.821L286.916 182.038V181.328C286.916 181.328 286.205 179.91 285.779 179.91C282.51 180.335 279.668 181.328 276.542 181.328C274.41 181.328 272.563 180.903 271.142 180.193L270.715 179.484C270.715 178.065 272.136 177.356 272.847 176.22H274.979C278.531 176.22 281.8 174.376 285.068 174.802L286.489 172.957C286.489 151.107 288.337 128.264 290.468 106.13C288.621 102.866 289.758 99.3191 289.758 95.772C289.758 89.3872 287.91 82.5767 286.916 76.4757C286.631 75.7662 285.779 75.3408 285.068 75.3408C284.358 75.3408 283.647 76.0501 283.647 76.7595C281.8 77.8946 282.51 80.7324 282.937 82.435H282.226C280.805 81.2999 281.516 79.5973 281.516 77.7528C281.516 76.6177 280.379 75.6244 279.384 75.6244C272.563 75.6244 266.452 79.881 259.631 79.881C258.21 79.881 256.789 79.4553 254.941 79.1715C255.652 73.4961 275.405 72.7867 280.379 70.9422C282.51 65.5506 281.516 60.159 281.516 54.7673C281.516 37.5993 286.205 19.0125 284.074 1.84446C284.358 0.709384 286.205 0 287.626 0L289.474 0.709358C289.189 3.26328 288.763 5.39155 288.763 7.80359C288.763 12.7695 289.474 18.1612 290.184 23.1271C291.605 25.2554 291.605 31.3564 291.605 34.1941C291.605 42.4234 290.895 50.3691 290.895 58.4565C290.895 60.5847 290.61 62.713 291.605 64.8412C290.895 65.9763 291.605 66.9695 293.026 67.6789C310.648 65.8344 328.127 63.4224 346.033 63.7061C348.591 62.9967 351.433 62.571 353.848 62.571C359.959 62.571 372.465 69.3815 374.312 74.7731C377.58 83.2862 379.712 93.36 379.712 102.724C379.712 122.73 371.186 120.602 365.786 133.088V133.513ZM281.942 90.2385L280.805 86.6914H281.942L282.368 89.5292L281.942 90.2385ZM281.231 96.3396C280.805 95.6302 280.805 94.9207 280.805 94.2112C280.805 93.0761 281.231 91.6574 281.942 90.9479L281.231 96.3396ZM281.942 104.569C281.942 103.434 281.231 102.441 281.231 101.305C281.231 100.88 281.658 100.171 281.658 99.8867C281.942 100.596 282.368 101.731 282.368 102.724C282.368 103.008 281.942 103.86 281.942 104.569ZM282.937 121.737H283.363L283.789 124.575L283.079 121.737H282.937ZM282.937 130.676H283.647V131.811L282.937 130.676ZM285.068 245.886L284.642 246.311C284.642 246.311 284.642 244.893 285.068 244.893C285.495 244.893 285.353 245.602 285.353 246.028H285.068V245.886ZM286.916 265.466H285.779L286.916 266.175V265.466ZM286.632 249.433C286.916 251.277 286.631 254.825 288.479 255.534L288.905 254.399C288.195 252.271 289.616 250.142 286.774 249.433H286.632ZM287.2 200.057H286.774V201.192H287.484L287.058 200.057H287.2ZM288.763 270.148V274.405H289.474V272.276C289.474 272.276 289.189 270.432 288.763 270.148ZM289.474 277.384L288.763 278.519C288.763 278.519 289.189 278.945 289.474 278.945C289.474 278.945 289.9 278.945 290.184 278.519C289.758 278.519 289.474 277.81 289.474 277.384ZM339.922 68.3884C325.285 68.3884 310.506 72.3611 295.442 73.0706C294.305 73.4962 292.174 74.2055 292.174 75.6244C292.174 82.0092 292.884 88.5359 292.884 94.9207C292.884 118.899 290.753 142.452 291.037 166.147V170.829L291.463 171.964L293.595 172.39C301.837 172.39 315.053 160.188 320.169 160.188C337.79 148.411 376.728 122.588 376.728 99.3191C376.728 76.05 361.38 68.5302 339.78 68.5302L339.922 68.3884ZM296.295 339.53V337.685C296.295 334.138 294.163 330.875 294.163 327.328C294.163 326.193 294.447 325.199 294.874 324.064C294.874 323.355 294.163 322.645 293.453 322.645H292.742V335.557C292.742 346.34 293.168 356.698 294.59 367.055H295.726C297.574 358.826 296.437 350.597 297.574 342.367L296.437 339.53H296.295ZM334.238 153.945V155.789C346.459 149.404 356.406 147.56 361.096 132.52C351.006 138.621 343.475 147.134 334.238 153.945Z"
    fill="white"
    class="svg-elem-3"
    ></path>
    <path
    d="M506.614 192.112C498.372 197.503 500.93 201.05 488.709 201.05C483.735 201.05 478.619 199.915 474.356 198.213C452.898 176.788 456.024 163.593 449.629 136.351L451.477 134.223C451.477 131.385 450.766 128.122 450.766 125.284C450.766 124.574 452.613 118.899 452.898 118.048C452.471 116.203 452.471 114.501 452.471 112.656C452.471 110.528 453.608 107.69 453.892 105.42C452.471 104.285 450.624 104.001 448.919 104.001C444.655 104.001 440.676 105.42 436.413 105.42C430.018 105.42 422.487 105.846 415.666 104.711V103.576C415.666 102.157 418.508 101.731 419.645 101.731C428.597 101.731 437.976 102.157 446.503 99.6028V99.1772C446.503 99.1772 443.945 98.7515 443.661 98.7515C442.95 98.7515 442.524 98.4677 442.524 98.0421C447.924 95.4882 457.161 100.596 457.161 92.3668C457.161 84.1375 466.54 75.6244 471.798 69.5234C477.482 62.0035 482.598 53.0647 493.256 53.0647H494.677C504.341 57.3212 501.499 67.3951 508.32 73.7799C508.32 77.3271 510.167 80.8741 510.167 84.5631C513.009 88.1102 512.015 90.9478 513.436 94.9206C503.772 98.8934 482.314 99.1771 470.803 101.731C465.403 111.095 462.987 120.318 462.987 130.676C462.987 148.979 467.961 165.721 471.23 183.598C471.514 184.734 471.514 188.564 473.788 188.281H475.209C477.767 188.281 480.182 190.835 482.03 192.537C483.451 192.537 485.298 192.821 486.719 192.821C493.967 192.821 508.178 189.983 512.157 183.173C518.551 172.39 522.531 164.87 522.531 152.384C522.531 149.83 521.82 135.216 524.378 135.216C526.225 135.216 526.936 141.601 526.936 142.736C526.936 161.748 523.383 180.619 506.899 191.686L506.614 192.112ZM462.987 103.15L462.561 103.576C457.587 107.832 458.298 107.123 458.298 113.224C458.298 115.778 456.877 118.19 456.877 120.744C456.877 122.588 458.298 123.581 458.298 125.426C458.298 126.561 457.161 128.264 456.877 128.973C456.877 133.939 456.166 138.621 456.166 143.587C456.166 147.56 461.14 168.701 463.698 169.41C463.414 167.282 463.698 165.437 463.698 163.309C463.698 161.465 463.414 159.762 462.277 158.627C462.561 157.492 462.987 156.499 462.987 155.364C462.987 150.681 459.008 140.04 459.008 134.223C459.008 126.419 462.561 113.082 466.54 105.988V105.562C466.54 103.717 464.408 103.008 462.987 103.008V103.15ZM462.561 94.2111C462.561 95.3462 463.272 96.7652 464.693 96.3395H466.54C468.672 96.3395 470.519 94.495 470.803 92.3668C473.361 84.8469 478.619 77.3269 479.33 69.807C471.514 74.0635 462.419 84.8468 462.419 94.0693L462.561 94.2111ZM503.772 81.5834C500.504 79.0295 500.504 74.4893 499.509 73.0705L489.419 62.7127H488.709C484.73 62.7127 475.493 89.5289 474.072 94.2111C475.209 95.3462 476.63 95.6301 478.051 95.6301C481.604 95.6301 484.872 94.2112 488.851 94.495C495.246 93.0761 502.067 94.0694 508.604 92.3668L503.914 81.5834H503.772ZM493.398 194.382C491.977 195.517 489.419 194.665 487.714 194.665C486.577 194.665 485.156 195.091 485.156 196.51C485.156 199.348 493.398 198.638 494.82 198.638C495.956 198.213 498.799 196.794 498.799 195.375C498.088 193.956 494.819 194.24 493.398 194.24V194.382ZM497.662 62.7127C495.53 59.4494 494.109 57.0374 489.419 57.0374C488.709 57.0374 487.572 57.7469 487.572 58.882V59.3077L488.282 58.882C493.256 58.882 493.967 63.1384 497.662 64.9829V62.8548V62.7127Z"
    fill="white"
    class="svg-elem-4"
    ></path>
    <path
    d="M670.465 82.0091C668.333 79.4552 668.617 75.9082 667.196 73.4962C663.644 65.2669 649.575 63.1386 641.759 63.1386C622.717 63.1386 593.016 84.9889 593.016 105.704C593.016 107.123 593.442 114.643 594.153 115.352C594.153 114.926 594.153 114.643 594.579 114.643C594.579 114.643 595.006 115.778 595.29 117.906L595.005 119.325L596.142 120.46C596.142 129.399 600.406 137.344 600.406 145.857C600.406 150.114 599.269 154.796 599.269 158.769C599.269 162.316 599.979 165.863 599.979 169.552C599.979 177.781 594.295 203.888 591.737 212.827C591.737 213.536 591.453 213.962 590.6 213.962C589.748 213.962 589.463 213.962 589.179 213.678V209.705C589.605 196.794 586.621 183.598 588.469 170.687C586.337 163.167 588.042 122.446 587.332 109.819H585.484L575.821 120.176H575.11C573.689 120.176 573.263 117.622 572.268 117.622C571.558 117.622 570.847 118.332 570.421 119.041L567.863 119.467C567.863 119.467 567.152 118.757 567.152 118.048C567.152 115.92 570.421 114.075 571.131 111.947C573.263 109.393 577.953 107.974 577.953 103.718C589.748 95.914 585.768 94.7789 585.768 80.1647C585.768 69.8072 589.037 59.0239 587.19 48.6664C589.037 46.8219 587.9 43.9841 587.9 41.8559C587.9 39.3019 589.748 38.3088 592.163 38.5926C593.584 42.5653 592.163 46.8218 592.163 50.7945C592.163 52.9228 592.448 54.7674 593.3 56.1862C594.721 63.4223 595.432 70.5165 595.858 77.6107C595.148 79.0296 594.721 80.4484 594.721 82.2929C594.721 83.7118 595.432 85.5563 596.569 86.5495C613.48 74.7731 616.606 56.4701 643.464 56.4701C657.817 56.4701 661.796 60.7266 669.612 71.5098C670.323 74.7731 670.039 77.6107 671.46 80.4484L670.323 82.2929L670.465 82.0091ZM584.774 103.434C579.8 106.981 576.105 111.947 573.974 117.764H575.395C578.663 113.082 583.921 109.109 585.768 103.434H584.632H584.774ZM590.884 69.0978C589.747 71.6517 589.037 74.0637 589.037 76.6176C589.037 79.4553 589.463 82.2929 589.463 85.5562C589.463 86.6913 589.463 87.6847 590.6 88.3941C591.026 85.1307 591.311 81.5835 591.311 78.3202V75.7664C591.311 73.6381 591.311 71.084 590.884 68.9557V69.0978ZM593.442 132.095C592.305 129.966 593.016 129.257 593.016 127.129C593.016 125.993 592.305 125 591.595 124.574L590.884 125V141.459C590.884 154.37 590.174 166.856 590.174 179.768C590.174 179.768 590.6 183.031 590.884 183.031C590.884 181.896 590.884 172.248 591.311 171.964C591.595 173.383 591.595 174.518 591.595 175.511C594.437 175.937 593.442 172.957 593.442 171.255C593.442 170.545 593.869 169.836 594.153 169.126V165.863V167.707C593.869 169.836 593.869 171.964 593.869 174.092C593.869 174.092 593.869 176.221 594.153 176.646C595.574 174.092 595.29 171.255 595.29 168.417C595.29 165.579 595.716 162.316 597.137 159.478C595.716 151.675 597.137 139.047 593.584 132.236L593.442 132.095ZM641.759 58.4564C639.201 58.4564 630.959 59.1657 630.959 62.7128C633.517 62.7128 635.933 61.5779 638.49 61.5779C642.754 61.5779 646.733 61.1523 650.996 61.1523C648.154 59.7334 644.885 58.3144 641.617 58.3144L641.759 58.4564Z"
    fill="white"
    class="svg-elem-5"
    ></path>
    <path
    d="M1098.07 156.503H1096.22L1098.07 155.368C1096.22 155.368 1094.8 155.368 1093.38 154.659C1085.56 156.077 1077.32 156.503 1069.79 157.922C1069.36 157.922 1068.65 158.631 1068.65 158.631C1068.65 158.631 1068.75 158.868 1068.94 159.341C1072.49 159.341 1076.18 160.05 1080.02 160.05C1083.29 160.05 1086.84 158.915 1090.11 158.631C1087.27 160.76 1077.18 160.476 1073.2 160.476C1071.78 160.476 1070.64 160.76 1069.65 161.185C1070.36 163.313 1072.91 164.023 1073.63 166.151C1081.44 173.955 1088.69 185.164 1094.37 194.386C1094.37 195.521 1094.8 197.224 1095.51 197.933V199.352C1095.51 200.062 1096.65 201.197 1097.36 201.481H1097.78C1097.78 201.481 1097.36 202.19 1097.36 202.615C1097.36 204.034 1100.63 205.169 1100.63 206.163C1100.63 206.446 1100.63 206.872 1100.2 206.872C1096.93 206.446 1096.22 204.744 1094.8 202.19C1091.53 200.062 1090.82 195.379 1086.98 193.535C1086.27 190.697 1084.43 190.981 1083.43 188.143L1080.16 181.049C1081.58 181.475 1082.72 182.468 1082.72 183.887C1084.85 188.853 1088.4 192.116 1090.96 196.798C1092.1 197.224 1092.1 198.643 1093.52 198.927C1091.39 192.825 1087.84 185.022 1082.01 181.049C1082.01 179.914 1081.58 178.495 1080.16 178.495C1079.45 178.495 1079.45 179.914 1079.74 180.34C1078.31 178.211 1077.6 176.083 1075.47 174.664L1075.9 173.955C1075.9 172.11 1074.76 170.692 1073.34 170.408C1072.63 167.854 1069.79 170.408 1068.37 167.57C1067.23 165.016 1064.1 164.307 1061.97 164.307C1055.58 173.955 1031.85 196.514 1028.72 206.163C1026.59 206.446 1025.17 208.007 1023.03 208.007C1022.61 208.007 1021.19 208.007 1021.19 207.298C1021.19 206.588 1022.61 205.879 1023.03 204.744C1026.59 199.068 1058.56 165.726 1058.56 161.469C1058.56 160.334 1056 159.624 1055.01 159.624C1053.87 159.199 1052.45 158.915 1051.46 158.915C1048.19 158.915 1045.35 159.624 1042.22 159.624C1034.69 159.624 1026.87 161.043 1018.91 161.043C1017.49 161.043 1018.2 159.624 1017.07 158.489C1019.62 158.064 1021.76 156.361 1024.31 156.361C1025.02 156.361 1026.45 156.645 1027.58 157.496C1029.71 157.496 1031.85 157.922 1033.98 157.922C1041.79 157.922 1053.02 157.496 1060.55 155.794C1060.98 155.51 1061.26 155.51 1061.26 155.084C1061.26 154.659 1059.41 154.375 1059.84 153.24C1059.84 151.821 1051.6 144.585 1051.6 142.457C1052.02 142.457 1052.02 142.031 1052.02 142.031C1052.02 138.058 1039.52 123.444 1036.25 119.897V119.613C1036.25 117.485 1034.4 116.35 1034.4 114.647C1034.4 113.938 1035.54 113.228 1036.25 113.228C1037.39 113.228 1038.1 114.647 1038.81 115.357C1038.52 115.64 1038.1 116.066 1038.1 116.492C1038.1 118.336 1045.91 128.268 1046.62 128.268C1047.05 128.268 1047.05 127.133 1047.34 127.133C1055.58 132.099 1057.71 141.463 1063.11 148.557C1068.51 148.557 1080.3 119.613 1087.13 117.059H1087.84C1081.73 125.998 1074.9 134.653 1069.93 144.301L1070.64 145.01C1073.91 143.591 1073.2 140.044 1074.62 138.909C1075.33 137.774 1078.88 135.646 1078.88 134.653C1078.88 133.943 1087.84 122.876 1089.68 118.904C1091.53 117.059 1092.53 114.931 1094.37 112.803L1091.82 113.512C1092.53 110.674 1098.64 107.127 1101.48 107.411C1098.21 113.086 1092.24 116.35 1089.68 122.451C1086.41 129.261 1082.86 133.234 1078.17 138.909V139.193C1078.17 140.328 1076.04 141.321 1076.04 142.457C1073.91 146.004 1067.09 149.976 1067.09 154.942C1068.23 155.368 1069.65 155.368 1070.64 155.368C1080.02 155.368 1089.68 153.24 1098.92 153.24C1102.19 153.24 1106.74 152.956 1109.72 154.375C1106.17 155.794 1102.19 156.219 1098.64 156.503H1098.07ZM1090.82 157.922H1088.97L1095.37 156.503C1094.66 156.787 1091.1 157.922 1090.68 157.922H1090.82Z"
    fill="white"
    class="svg-elem-6"
    ></path>
    <path
    d="M1135.3 170.975C1133.45 172.394 1130.33 174.522 1130.61 177.36V178.495C1127.77 182.752 1127.34 187.86 1124.5 192.116C1124.22 192.542 1124.07 193.109 1123.79 193.535C1128.19 169.414 1129.62 141.747 1129.62 125.998C1129.62 111.384 1124.64 97.0534 1123.22 82.2974C1122.51 70.8047 1122.08 58.319 1114.55 49.0965C1107.02 40.5834 1096.65 34.0567 1084.85 34.0567C1083 34.0567 1081.3 34.0567 1079.45 34.3405C1078.03 33.2054 1076.18 32.9216 1074.48 32.9216C1069.08 32.9216 1064.81 36.8944 1059.84 36.8944C1058.42 36.8944 1057 36.6106 1055.86 36.1849L1054.01 38.0295L1060.41 38.3132C1060.84 39.0226 1061.55 39.7321 1061.55 40.4415C1061.55 42.5698 1055.44 41.8603 1054.72 45.4074C1043.21 51.5085 1031.13 66.1225 1024.31 76.9057C1020.33 83.2905 1016.78 91.2361 1013.23 98.0466C1012.8 98.3304 1010.39 103.722 1009.68 103.722C1009.68 106.276 1008.97 108.404 1008.54 110.533C1005.7 113.37 1007.4 118.762 1004.56 121.599C1000.3 135.22 996.745 151.963 996.745 166.009C996.745 167.144 996.034 167.428 994.897 167.854C994.613 164.59 993.476 161.043 993.76 157.496V155.368C995.182 123.16 995.892 95.9183 1014.93 68.1089C1029.29 46.9681 1047.48 43.8467 1052.88 37.32C1051.74 37.32 1051.03 36.8944 1050.04 36.8944C1047.19 36.8944 1044.35 38.3132 1042.93 40.8671C1022.47 47.6776 1012.52 66.2645 1003.85 84.142C1002.43 86.2702 1000.58 87.689 1000.3 90.5267C998.876 96.9115 997.739 103.013 995.324 109.539C994.613 112.093 993.192 115.924 993.192 118.478C993.192 120.606 994.329 122.734 994.329 124.863C994.329 127.7 993.903 130.254 993.192 133.092C989.213 152.814 988.218 174.239 988.218 194.244C988.218 210.277 995.324 224.608 1000.44 239.364C1005.84 255.113 1017.35 268.024 1029.43 278.666L1038.38 280.085C1040.51 281.929 1043.07 282.638 1045.91 282.638C1049.89 282.638 1053.73 281.22 1057.71 281.503H1059.13C1064.1 278.24 1072.77 276.112 1076.75 271.855C1077.89 271.146 1078.6 268.592 1080.02 268.592C1080.3 268.592 1080.73 268.592 1081.16 268.876C1088.69 260.646 1098.07 253.836 1104.75 245.323C1108.3 241.066 1110.43 235.675 1113.7 230.992C1114.84 229.574 1114.84 227.445 1116.54 226.31C1120.8 215.527 1138 181.191 1138 171.969V170.833H1135.44L1135.3 170.975ZM1050.04 279.801C1038.95 279.801 1026.45 275.828 1019.91 266.606C1014.93 260.221 1008.11 254.12 1004.84 246.174C1001.58 242.627 990.918 199.636 990.918 193.251C990.918 192.967 990.918 191.407 992.055 191.407C996.318 191.407 1004.28 214.25 1004.99 217.513C1008.26 228.297 1014.37 239.647 1019.34 249.721C1022.18 254.687 1026.16 258.376 1029 263.342C1032.56 264.477 1034.4 268.308 1038.24 269.018C1040.09 272.281 1043.64 272.565 1045.77 275.118C1047.19 275.118 1051.17 276.254 1051.17 277.956C1051.17 278.666 1051.17 279.801 1050.04 279.801ZM1076.18 263.626C1073.63 268.308 1063.68 273.984 1058.99 273.984C1054.01 273.984 1049.61 269.301 1044.64 269.018C1043.5 265.47 1039.66 267.173 1037.1 265.47C1030.99 261.214 1022.75 252.559 1019.2 246.174C1013.09 234.681 1007.69 219.642 1004.56 207.581C1003.14 202.616 1003.14 173.529 1003.14 167.57C1003.14 146.146 1002.43 129.261 1011.38 109.681C1011.38 105.425 1015.65 102.871 1015.65 99.6073V98.1884C1018.2 95.3507 1018.2 90.6686 1021.33 88.1147C1024.6 77.7571 1034.26 71.2305 1039.24 61.5824C1043.21 59.7379 1044.21 54.488 1047.9 51.9341C1055.72 46.9682 1063.96 39.732 1074.05 39.732C1075.19 40.4415 1076.18 41.151 1077.6 41.151C1078.31 41.151 1078.74 40.8671 1079.45 40.8671L1080.87 39.732C1082.29 40.0158 1084.14 41.5766 1084.85 39.0227C1091.25 40.4415 1100.2 37.1781 1104.18 44.4142C1118.1 53.353 1113.84 72.3654 1119.53 85.135C1120.66 96.6277 1121.66 107.979 1122.08 119.897C1122.51 135.93 1124.64 152.105 1124.64 168.563C1124.64 181.9 1123.79 190.272 1121.52 198.075C1120.09 200.771 1118.53 203.467 1117.11 206.446C1113.13 208.575 1112.42 214.25 1108.16 215.811C1105.46 221.061 1102.05 228.297 1098.35 235.817C1098.35 235.817 1098.35 235.817 1098.21 235.817C1097.78 235.391 1097.64 234.965 1097.36 234.398C1096.36 235.533 1095.51 236.81 1094.37 237.803C1094.94 238.512 1095.51 239.364 1096.08 239.931C1090.39 250.431 1083.71 260.363 1076.33 263.626H1076.18ZM1116.12 211.554C1113.98 216.095 1111.28 221.202 1108.02 227.445C1105.32 228.58 1103.89 231.418 1102.05 233.546C1102.47 232.411 1102.76 231.418 1103.47 230.709C1106.59 223.615 1111.43 217.655 1116.26 211.554H1116.12ZM1096.93 248.302C1096.5 250.147 1095.08 250.431 1093.66 250.856C1095.08 247.025 1096.79 243.336 1098.64 239.789C1102.05 238.512 1105.17 235.533 1108.58 233.688C1105.03 238.796 1101.19 243.762 1096.93 248.302ZM1118.96 213.541C1119.81 210.845 1120.52 208.007 1121.23 205.028C1121.94 204.034 1122.65 203.183 1123.36 202.19C1123.36 206.588 1121.09 209.993 1118.82 213.541H1118.96Z"
    fill="white"
    class="svg-elem-7"
    ></path>
    <path
    d="M1060.69 276.537C1060.69 276.537 1059.98 276.963 1059.98 277.248H1060.69C1060.69 277.248 1060.69 276.963 1060.98 276.963C1060.98 276.963 1060.88 276.821 1060.69 276.537Z"
    fill="white"
    class="svg-elem-8"
    ></path>
    <path
    d="M499.365 318.67C498.229 318.67 497.234 317.961 497.234 316.542C489.418 308.313 483.307 300.793 470.66 300.793C461.423 300.793 454.601 306.894 446.359 310.015C439.964 316.826 433.854 325.765 433.854 335.838C433.854 340.521 435.275 344.777 437.833 348.324C438.97 355.844 444.227 362.229 444.654 369.749C446.075 370.884 452.186 377.978 453.18 379.823C456.733 386.633 457.159 384.789 463.27 389.897C470.802 396.281 468.244 408.058 477.907 416.429C481.886 424.942 489.418 433.597 489.418 443.245C489.418 445.373 488.707 447.218 488.707 449.346C488.707 453.319 490.128 457.15 490.128 461.122C490.128 463.251 489.702 465.379 488.707 466.798C474.781 475.311 471.796 479 454.033 479C436.269 479 432.859 463.96 421.064 455.447V454.738C421.064 453.603 422.485 452.609 422.485 451.191C422.485 450.481 421.775 449.772 421.064 449.772L421.774 448.637C425.753 451.191 427.885 455.447 431.438 458.71H433.996C438.685 469.494 442.949 475.453 456.165 475.453C461.849 475.453 467.249 474.034 472.223 471.48C480.465 467.933 477.197 462.967 480.465 456.44V453.886C481.602 434.59 451.475 390.89 437.122 376.559C435.275 371.877 430.301 368.756 429.59 363.648C427.032 359.391 425.611 356.837 425.611 351.446C425.611 343.926 423.764 336.122 423.764 328.177C426.322 323.92 426.606 318.529 430.159 314.981C441.67 303.914 451.333 296.82 468.528 296.82C477.907 296.82 501.071 303.914 501.071 316.826C501.071 317.535 499.934 318.67 499.223 318.67H499.365ZM456.733 301.077C454.886 301.077 448.491 303.631 447.07 305.049C437.406 307.887 428.027 321.508 428.027 331.582C428.027 339.102 431.296 346.196 432.29 353.716C435.559 358.682 437.264 363.79 442.38 367.621H443.091C441.243 360.526 435.985 354 435.985 346.48C433.854 343.926 431.722 340.095 431.722 336.832C431.722 330.731 434.564 325.055 437.122 319.947C441.385 316.684 441.385 312.144 445.364 308.88L449.343 308.171C451.901 305.617 456.875 303.489 458.296 300.935H456.875L456.733 301.077ZM442.38 365.776C438.827 363.648 439.822 360.385 435.275 356.837C434.848 356.554 435.275 355.702 435.275 354.993C435.275 353.858 433.854 353.858 433.143 353.858V355.277C433.143 360.668 439.254 365.35 441.67 370.316C443.517 371.026 441.67 372.87 445.222 372.87C445.222 370.316 443.091 368.188 442.38 365.634V365.776ZM446.359 374.857L445.649 375.282L446.359 375.708V374.999V374.857ZM484.018 447.076C484.728 446.367 485.155 445.232 485.155 444.238C485.155 442.11 484.018 439.982 484.018 437.428C479.044 427.78 476.202 416.713 469.665 407.348C465.402 406.213 468.244 402.666 464.975 401.247C463.554 395.146 460.001 390.464 455.312 386.917C454.175 384.363 450.622 378.404 448.206 377.269V379.113C450.338 380.532 451.049 382.66 452.186 384.505C461.565 399.545 472.223 414.159 478.049 431.043C479.897 437.428 483.449 445.373 483.449 452.184C483.449 455.022 483.165 457.575 481.602 459.987C481.602 460.697 482.312 461.406 483.023 461.122C484.87 458.994 485.155 456.44 485.155 453.603C485.155 451.474 484.728 449.346 484.018 447.218V447.076ZM486.149 462.116C478.618 464.953 478.618 471.054 473.217 475.027L474.639 475.736C477.481 472.899 486.86 468.926 486.86 464.67C486.86 463.96 486.434 462.825 486.149 462.116Z"
    fill="white"
    class="svg-elem-9"
    ></path>
    <path
    d="M615.468 453.177C607.225 458.568 609.783 462.116 597.562 462.116C592.588 462.116 587.472 460.98 583.209 459.278C561.751 437.853 564.877 424.516 558.482 397.416L560.33 395.288C560.33 392.45 559.619 389.187 559.619 386.349C559.619 385.64 561.467 379.964 561.751 379.255C561.325 377.41 561.325 375.708 561.325 373.863C561.325 371.735 562.461 368.897 562.746 366.769C561.325 365.634 559.477 365.35 557.772 365.35C553.509 365.35 549.53 366.769 545.266 366.769C538.871 366.769 531.34 367.195 524.519 366.06V364.924C524.519 363.506 527.361 363.08 528.498 363.08C537.45 363.08 546.829 363.364 555.356 360.952V360.668C555.356 359.958 552.798 360.242 552.514 360.242C551.803 360.242 551.377 359.817 551.377 359.533C556.777 356.979 566.014 362.087 566.014 353.858C566.014 345.628 575.393 336.973 580.651 331.014C586.335 323.494 591.451 314.555 602.109 314.555H603.531C613.194 318.812 610.352 328.886 617.173 335.271C617.173 338.818 619.02 342.365 619.02 346.054C621.862 349.601 620.868 352.439 622.289 356.412C612.625 360.384 591.167 360.668 579.656 363.222C574.256 372.444 571.841 381.809 571.841 392.166C571.841 410.328 576.814 427.212 580.083 445.089C580.367 446.224 580.367 450.055 582.641 449.772H584.062C586.62 449.772 589.036 452.325 590.883 454.028C592.304 454.028 594.151 454.454 595.573 454.454C602.82 454.454 617.031 451.616 621.01 444.806C627.405 434.022 631.384 426.644 631.384 414.017C631.384 411.463 630.673 396.849 633.231 396.849C635.079 396.849 635.789 403.233 635.789 404.368C635.789 423.381 632.236 442.252 615.752 453.319L615.468 453.177ZM571.841 364.073L571.414 364.357C566.44 368.614 567.151 367.904 567.151 374.005C567.151 376.559 565.73 378.971 565.73 381.525C565.73 383.369 567.151 384.363 567.151 386.207C567.151 387.342 566.014 389.045 565.73 389.754C565.73 394.72 565.019 399.402 565.019 404.368C565.019 408.341 569.993 429.34 572.551 430.191C572.267 428.063 572.551 426.219 572.551 424.09C572.551 422.246 572.267 420.543 571.13 419.408C571.414 418.273 571.841 417.28 571.841 416.145C571.841 411.463 567.862 400.821 567.862 395.004C567.862 387.201 571.414 373.863 575.393 366.769V366.343C575.393 364.499 573.262 363.789 571.841 363.789V364.073ZM571.414 355.134C571.414 356.269 572.125 357.688 573.546 357.263H575.393C577.525 357.263 579.372 355.418 579.656 353.29C582.214 345.77 587.472 338.25 588.183 330.73C580.367 334.987 571.272 345.77 571.272 354.993L571.414 355.134ZM612.625 342.649C609.357 340.095 609.357 335.413 608.362 333.994L598.273 323.636H597.562C593.583 323.636 584.346 350.452 582.925 355.134C584.062 356.269 585.483 356.553 586.904 356.553C590.457 356.553 593.725 355.134 597.704 355.418C604.099 353.999 610.92 354.993 617.457 353.29L612.768 342.507L612.625 342.649ZM602.252 455.305C600.831 456.44 598.273 455.731 596.567 455.731C595.43 455.731 594.009 456.014 594.009 457.575C594.009 460.413 602.252 459.703 603.673 459.703C604.81 459.278 607.652 457.859 607.652 456.44C606.941 455.021 603.673 455.305 602.252 455.305ZM606.515 323.636C604.383 320.373 602.962 317.961 598.273 317.961C597.562 317.961 596.425 318.67 596.425 319.805V320.089L597.136 319.805C602.109 319.805 602.82 324.062 606.515 325.906V323.778V323.636Z"
    fill="white"
    class="svg-elem-10"
    ></path>
    <path
    d="M760.559 453.177C752.317 458.568 754.875 462.116 742.654 462.116C737.68 462.116 732.564 460.98 728.301 459.278C706.843 437.853 709.969 424.516 703.574 397.416L705.422 395.288C705.422 392.45 704.711 389.187 704.711 386.349C704.711 385.64 706.558 379.964 706.843 379.255C706.416 377.41 706.416 375.708 706.416 373.863C706.416 371.735 707.553 368.897 707.837 366.769C706.416 365.634 704.569 365.35 702.864 365.35C698.6 365.35 694.621 366.769 690.358 366.769C683.963 366.769 676.432 367.195 669.61 366.06V364.924C669.61 363.506 672.452 363.08 673.589 363.08C682.542 363.08 691.921 363.364 700.448 360.952V360.668C700.448 359.958 697.89 360.242 697.606 360.242C696.895 360.242 696.469 359.817 696.469 359.533C701.869 356.979 711.106 362.087 711.106 353.858C711.106 345.628 720.485 336.973 725.743 331.014C731.427 323.494 736.543 314.555 747.201 314.555H748.622C758.286 318.812 755.444 328.886 762.265 335.271C762.265 338.818 764.112 342.365 764.112 346.054C766.954 349.601 765.96 352.439 767.381 356.412C757.717 360.384 736.259 360.668 724.748 363.222C719.348 372.444 716.932 381.809 716.932 392.166C716.932 410.328 721.906 427.212 725.175 445.089C725.601 446.224 725.601 450.055 727.733 449.772H729.154C731.712 449.772 734.127 452.325 735.975 454.028C737.396 454.028 739.243 454.454 740.664 454.454C747.912 454.454 762.123 451.616 766.102 444.806C772.496 434.022 776.475 426.644 776.475 414.017C776.475 411.463 775.765 396.849 778.323 396.849C780.17 396.849 780.881 403.233 780.881 404.368C780.881 423.381 777.328 442.252 760.844 453.319L760.559 453.177ZM716.932 364.073L716.506 364.357C711.532 368.614 712.243 367.904 712.243 374.005C712.243 376.559 710.822 378.971 710.822 381.525C710.822 383.369 712.243 384.363 712.243 386.207C712.243 387.342 711.106 389.045 710.822 389.754C710.822 394.72 710.111 399.402 710.111 404.368C710.111 408.341 715.085 429.34 717.643 430.191C717.359 428.063 717.643 426.219 717.643 424.09C717.643 422.246 717.359 420.543 716.222 419.408C716.506 418.273 716.932 417.28 716.932 416.145C716.932 411.463 712.953 400.821 712.953 395.004C712.953 387.201 716.506 373.863 720.485 366.769V366.343C720.485 364.499 718.353 363.789 716.932 363.789V364.073ZM716.506 355.134C716.506 356.269 717.217 357.688 718.638 357.263H720.485C722.617 357.263 724.464 355.418 724.748 353.29C727.306 345.77 732.564 338.25 733.275 330.73C725.459 334.987 716.364 345.77 716.364 354.993L716.506 355.134ZM757.717 342.649C754.449 340.095 754.449 335.413 753.454 333.994L743.364 323.636H742.654C738.675 323.636 729.438 350.452 728.017 355.134C729.154 356.269 730.575 356.553 731.996 356.553C735.548 356.553 738.817 355.134 742.796 355.418C749.191 353.999 756.012 354.993 762.549 353.29L757.859 342.507L757.717 342.649ZM747.343 455.305C745.922 456.44 743.364 455.731 741.659 455.731C740.522 455.731 739.101 456.014 739.101 457.575C739.101 460.413 747.343 459.703 748.764 459.703C749.901 459.278 752.743 457.859 752.743 456.44C752.033 455.021 748.764 455.305 747.343 455.305ZM751.607 323.636C749.475 320.373 748.054 317.961 743.364 317.961C742.654 317.961 741.517 318.67 741.517 319.805V320.089L742.227 319.805C747.201 319.805 747.912 324.062 751.607 325.906V323.778V323.636Z"
    fill="white"
    class="svg-elem-11"
    ></path>
    <path
    d="M947.431 427.78C942.031 428.063 937.342 431.327 932.368 433.455C930.236 441.684 930.947 450.623 930.947 459.278C930.947 461.832 930.947 464.244 930.52 466.798H929.81C927.962 466.372 925.831 468.926 924.126 468.926C923.415 468.926 922.705 468.642 921.994 467.791C919.436 459.278 918.725 449.63 918.725 440.549L917.589 437.995C907.215 441.259 897.125 445.799 886.467 445.799C880.783 447.927 866.004 449.062 859.609 449.062C840.993 449.062 842.698 444.806 827.777 439.414C826.64 438.279 825.929 439.13 824.934 439.414C820.671 429.766 819.25 432.32 819.25 420.827C819.25 419.408 819.25 417.99 819.961 416.854C823.513 414.017 825.361 395.004 829.624 394.295C859.324 362.796 876.519 353.148 917.731 341.656L918.868 339.102V326.9L919.294 327.609C919.72 327.609 920.005 327.183 920.005 326.9C920.715 323.636 920.715 319.663 920.715 316.116L920.999 312.144C920.999 307.461 917.731 306.043 917.731 297.529C917.731 291.854 919.152 285.753 919.152 279.652C919.152 277.098 918.441 274.97 918.015 272.132C915.883 259.93 916.168 246.735 916.168 234.533C916.168 222.331 916.594 210.554 916.878 198.778C916.168 198.494 916.878 187.711 916.878 185.866C916.878 183.738 916.878 176.928 917.589 179.482C916.452 174.516 916.168 169.124 915.457 164.158C915.741 163.449 915.741 163.023 915.741 162.739C915.741 161.32 915.457 160.185 915.457 159.192L916.168 157.348H917.304C922.989 157.348 923.699 179.907 923.699 185.299C923.699 192.109 921.852 198.494 921.852 205.304C921.852 217.081 922.562 228.574 922.562 240.066C922.562 244.748 922.562 251.133 925.12 255.39C927.963 253.545 926.541 249.998 926.541 247.16C926.541 227.438 927.963 207.858 927.678 187.853H928.815L929.526 188.988C930.236 192.251 929.81 196.508 929.81 199.771C929.81 226.587 927.252 253.12 927.252 279.936C927.252 280.362 927.678 282.064 927.252 282.49C926.968 280.361 925.12 263.477 924.41 263.193C923.983 264.328 923.984 265.747 923.984 266.741C923.984 275.395 924.41 283.909 924.694 292.564C924.694 302.212 925.831 313.279 928.247 322.927C928.247 323.353 928.957 324.771 929.384 324.771C930.094 322.927 930.094 320.799 930.094 319.096C930.52 321.65 930.805 324.488 931.942 326.9C931.515 326.19 931.515 323.636 930.805 322.927C930.094 325.055 930.094 329.737 930.094 331.865C930.094 334.419 929.384 338.676 932.226 339.385H934.073C935.21 339.385 936.631 339.811 937.626 340.095C937.626 343.642 932.652 341.514 930.52 343.642C930.52 357.547 933.789 371.168 933.789 385.072C933.789 389.045 933.505 392.876 933.505 396.849C933.505 405.787 934.642 415.861 933.078 424.374C934.215 425.793 935.21 426.503 936.631 426.503C939.473 426.503 941.605 425.084 944.163 425.084C945.3 424.374 946.721 423.949 948.142 423.949C948.852 423.949 949.989 424.232 950.984 424.232V425.368C950.984 426.786 948.426 427.212 947.431 427.496V427.78ZM828.487 415.294C826.64 417.138 822.803 419.266 822.803 422.104C822.803 422.53 822.803 423.239 823.087 423.523L824.934 422.814C825.361 420.26 828.487 418.131 828.487 415.578V415.294ZM848.951 440.691C841.419 439.556 835.308 432.462 833.603 425.368C833.177 423.523 834.314 422.53 834.314 420.685C834.314 419.976 833.887 419.55 833.603 418.841C828.629 420.969 827.208 426.645 826.071 431.752C831.471 442.819 846.108 447.076 857.619 448.495C859.751 447.076 865.151 449.63 866.288 446.65C861.314 442.677 854.067 444.522 849.093 440.549L848.951 440.691ZM916.594 371.593C918.726 366.202 916.168 360.81 917.731 355.56L916.594 353.716H914.462C905.794 353.006 899.115 359.391 890.446 359.817C888.314 362.371 884.762 361.945 882.204 364.499C868.561 368.472 856.34 378.829 845.966 388.052C839.571 393.727 837.013 405.22 837.44 413.449C836.303 415.294 836.019 417.422 836.019 419.125C836.019 437.002 857.193 442.678 871.546 442.678C884.051 442.678 906.362 437.995 917.02 432.32C917.02 430.191 917.304 428.063 918.441 426.219C915.883 408.341 917.304 389.329 916.594 371.451V371.593ZM914.178 347.189C907.357 349.317 900.962 352.155 894.851 356.128L895.988 356.553C898.546 354 910.625 351.871 914.32 351.871C916.878 351.871 917.873 350.736 917.873 348.324C917.873 346.905 915.315 347.189 914.32 347.189H914.178ZM923.131 366.202C923.131 364.073 924.978 361.945 924.978 359.817V359.108C923.841 357.689 924.694 353.006 923.131 353.006C922.42 353.006 920.999 354.142 920.573 354.425C920.147 361.236 920.147 368.33 920.147 375.14V387.342C920.147 399.828 919.436 414.159 921.283 426.361C921.71 428.205 921.71 430.617 923.841 430.617C925.689 423.523 925.262 415.294 925.262 408.058C925.262 397.984 923.841 388.336 923.841 378.404C923.841 375.566 924.268 372.303 925.689 369.749C924.268 369.039 923.131 367.904 923.131 366.202ZM921.994 345.486C921.994 346.622 921.283 348.04 921.283 349.034C921.283 349.743 921.994 350.878 922.42 350.878C923.841 350.878 924.978 347.615 925.689 346.622C925.689 345.203 922.847 345.486 922.136 345.486H921.994ZM923.131 437.002C922.42 438.846 921.994 440.549 921.994 442.394C921.994 445.231 922.278 457.433 924.126 458.569C925.263 456.44 925.547 453.886 925.547 451.758C925.547 448.92 925.547 437.428 922.989 437.144L923.131 437.002ZM929.526 382.66L928.389 384.505C928.389 384.505 928.673 385.924 929.526 386.349C929.81 386.066 930.236 385.214 930.236 384.93C930.236 384.221 929.81 383.512 929.526 382.802V382.66Z"
    fill="white"
    class="svg-elem-12"
    ></path>
</svg>